<svg id="Layer_2" style="height:20px" data-name="Layer 2" xmlns="http://www.w3.org/2000/svg" viewBox="0 0 553 341.88"><defs><style>.cls-1{fill:#25408f;}</style></defs><title>naaman</title><rect class="cls-1" x="79.5" y="211.76" width="8.25" height="96"/><rect class="cls-1" x="92.84" y="211.76" width="17.41" height="96"/><rect class="cls-1" x="118.8" y="211.76" width="17.41" height="96"/><rect class="cls-1" x="145.8" y="211.76" width="17.41" height="96"/><rect class="cls-1" x="188.8" y="211.76" width="17.41" height="96"/><rect class="cls-1" x="218.3" y="211.76" width="17.41" height="96"/><rect class="cls-1" x="261.3" y="211.76" width="17.41" height="96"/><rect class="cls-1" x="289.05" y="211.76" width="17.41" height="96"/><rect class="cls-1" x="314.8" y="211.76" width="17.41" height="96"/><rect class="cls-1" x="356.55" y="211.76" width="17.41" height="96"/><rect class="cls-1" x="400.3" y="211.76" width="17.41" height="96"/><rect class="cls-1" x="427.8" y="211.76" width="17.41" height="96"/><rect class="cls-1" x="454.05" y="211.76" width="17.41" height="96"/><rect class="cls-1" x="477.05" y="211.76" width="7.7" height="96"/><rect class="cls-1" x="337.8" y="211.76" width="8.71" height="96"/><rect class="cls-1" x="957.27" y="392.27" width="8.71" height="473.75" transform="translate(906.77 -646.22) rotate(90)"/><rect class="cls-1" x="957.61" y="383.9" width="8.71" height="517.42" transform="translate(920.56 -633.1) rotate(90)"/><rect class="cls-1" x="957.9" y="376.52" width="5.21" height="553" transform="translate(929.52 -621.22) rotate(90)"/><rect class="cls-1" x="947.2" y="191.15" width="7.64" height="473.15" transform="translate(307.34 -928.02) rotate(68)"/><rect class="cls-1" x="940.3" y="160.17" width="10.89" height="507.29" transform="translate(291.14 -931.83) rotate(68)"/></svg>
